<?xml version="1.0" encoding="UTF-8" standalone="no"?>
<svg
   xmlns:dc="http://purl.org/dc/elements/1.1/"
   xmlns:cc="http://creativecommons.org/ns#"
   xmlns:rdf="http://www.w3.org/1999/02/22-rdf-syntax-ns#"
   xmlns:svg="http://www.w3.org/2000/svg"
   xmlns="http://www.w3.org/2000/svg"
   xmlns:sodipodi="http://sodipodi.sourceforge.net/DTD/sodipodi-0.dtd"
   xmlns:inkscape="http://www.inkscape.org/namespaces/inkscape"
   width="1000px"
   height="1000px"
   viewBox="0 0 1000 1000"
   version="1.1"
   id="SVGRoot"
   sodipodi:docname="cuorePieno.svg"
   inkscape:version="1.0.1 (3bc2e813f5, 2020-09-07)">
  <defs
     id="defs833" />
  <sodipodi:namedview
     id="base"
     pagecolor="#ffffff"
     bordercolor="#666666"
     borderopacity="1.0"
     inkscape:pageopacity="0.0"
     inkscape:pageshadow="2"
     inkscape:zoom="0.35"
     inkscape:cx="115.64777"
     inkscape:cy="372.32271"
     inkscape:document-units="px"
     inkscape:current-layer="layer1"
     inkscape:document-rotation="0"
     showgrid="false"
     inkscape:window-width="1631"
     inkscape:window-height="1030"
     inkscape:window-x="132"
     inkscape:window-y="0"
     inkscape:window-maximized="0" />
  <metadata
     id="metadata836">
    <rdf:RDF>
      <cc:Work
         rdf:about="">
        <dc:format>image/svg+xml</dc:format>
        <dc:type
           rdf:resource="http://purl.org/dc/dcmitype/StillImage" />
        <dc:title />
      </cc:Work>
    </rdf:RDF>
  </metadata>
  <g
     inkscape:label="Livello 1"
     inkscape:groupmode="layer"
     id="layer1">
    <path
       id="rect1515-9-3"
       style="fill:#eb3535;fill-opacity:1;fill-rule:evenodd;stroke:none;stroke-width:19.8047;stroke-linecap:round;stroke-linejoin:round;stroke-opacity:1;paint-order:markers fill stroke;stop-color:#000000"
       d="m 326.12514,183.72795 c -67.72303,-0.20668 -134.61512,30.5226 -178.61768,89.06012 -58.464089,77.77594 -58.52653,180.71277 -7.5504,257.09726 l -0.002,0.002 c 13.64161,20.44089 30.92644,38.98598 51.73973,54.63132 l 308.3052,231.75468 308.30548,-231.75441 c 20.81383,-15.64573 38.09569,-34.19208 51.73746,-54.63359 50.97613,-76.38449 50.91369,-179.32132 -7.5504,-257.09726 -44.00256,-58.53752 -110.89465,-89.2668 -178.61769,-89.06012 -46.3368,0.1414 -93.06118,14.76601 -133.11317,44.87306 l -40.76168,30.63996 -40.76167,-30.63996 C 419.18634,198.49396 372.46194,183.86935 326.12514,183.72795 Z" />
  </g>
</svg>
